<svg version="1.1" id="Layer_1" xmlns="http://www.w3.org/2000/svg" xmlns:xlink="http://www.w3.org/1999/xlink" x="0px" y="0px" viewBox="0 0 262.3 86.5" style="enable-background:new 0 0 262.3 86.5;" xml:space="preserve">
<style type="text/css">
	.st0{fill:#F2F2F3;}
	.st1{fill-rule:evenodd;clip-rule:evenodd;fill:#F2F2F3;}
</style>
<g>
	<polygon class="st0" points="99.7,22.2 104.1,22.2 109.6,38.8 115.2,22.2 119.5,22.2 123.6,46 119.2,46 116.6,31 111.6,46 
		107.6,46 102.6,31 100,46 95.6,46"/>
	<path class="st0" d="M136.7,26.1c-2.2,0-4,0.8-5.5,2.3c-1.5,1.5-2.2,3.5-2.2,5.8c0,2.6,0.9,4.7,2.8,6.2c1.5,1.2,3.1,1.8,5,1.8
		c2.1,0,4-0.8,5.5-2.3c1.5-1.6,2.3-3.5,2.3-5.7c0-2.3-0.8-4.2-2.3-5.7C140.7,26.8,138.9,26.1,136.7,26.1z M136.8,21.6
		c3.4,0,6.3,1.2,8.7,3.7c2.4,2.4,3.6,5.4,3.6,8.9c0,3.5-1.2,6.4-3.6,8.8c-2.4,2.4-5.3,3.6-8.7,3.6c-3.6,0-6.5-1.2-8.9-3.7
		c-2.4-2.5-3.5-5.4-3.5-8.8c0-2.3,0.5-4.4,1.6-6.3c1.1-1.9,2.6-3.4,4.5-4.5C132.5,22.2,134.5,21.6,136.8,21.6z"/>
	<rect x="151.8" y="35.2" class="st0" width="8.2" height="4.1"/>
	<path class="st0" d="M185.8,26.4l-3.2,3c-2.2-2.3-4.6-3.4-7.3-3.4c-2.3,0-4.2,0.8-5.7,2.3c-1.6,1.6-2.3,3.5-2.3,5.7
		c0,1.6,0.3,3,1,4.2c0.7,1.2,1.7,2.2,2.9,2.9c1.3,0.7,2.7,1.1,4.2,1.1c1.3,0,2.5-0.2,3.6-0.7c1.1-0.5,2.3-1.4,3.6-2.7l3.1,3.2
		c-1.8,1.7-3.4,2.9-5,3.6c-1.6,0.7-3.3,1-5.4,1c-3.7,0-6.7-1.2-9.1-3.5c-2.4-2.3-3.5-5.3-3.5-9c0-2.4,0.5-4.5,1.6-6.3
		c1.1-1.8,2.6-3.3,4.6-4.4c2-1.1,4.2-1.7,6.5-1.7c2,0,3.8,0.4,5.7,1.2C182.9,23.7,184.4,24.9,185.8,26.4z"/>
	<polygon class="st0" points="188.1,22.2 192.6,22.2 192.6,31.2 200.6,31.2 200.6,22.2 205.2,22.2 205.2,46 200.6,46 200.6,35.6 
		192.6,35.6 192.6,46 188.1,46"/>
	<rect x="208.6" y="22.2" class="st0" width="4.5" height="23.8"/>
	<path class="st0" d="M238.4,26.4l-3.2,3c-2.2-2.3-4.6-3.4-7.3-3.4c-2.3,0-4.2,0.8-5.7,2.3c-1.6,1.6-2.3,3.5-2.3,5.7
		c0,1.6,0.3,3,1,4.2c0.7,1.2,1.7,2.2,2.9,2.9c1.3,0.7,2.7,1.1,4.2,1.1c1.3,0,2.5-0.2,3.6-0.7c1.1-0.5,2.3-1.4,3.6-2.7l3.1,3.2
		c-1.8,1.7-3.4,2.9-5,3.6c-1.6,0.7-3.3,1-5.3,1c-3.7,0-6.7-1.2-9.1-3.5c-2.4-2.3-3.5-5.3-3.5-9c0-2.4,0.5-4.5,1.6-6.3
		c1.1-1.8,2.6-3.3,4.6-4.4c2-1.1,4.2-1.7,6.5-1.7c2,0,3.8,0.4,5.7,1.2C235.5,23.7,237.1,24.9,238.4,26.4z"/>
	<path class="st0" d="M250.3,28.5l-3.2,8.2h6.3L250.3,28.5z M247.9,22.2h4.6l9.1,23.8H257l-1.9-4.9h-9.7l-1.9,4.9h-4.7L247.9,22.2z"/>
	<path class="st0" d="M101.7,55.8l-0.8,0.9c-0.7-0.7-1.4-1-2.1-1c-0.4,0-0.8,0.1-1.1,0.4c-0.3,0.3-0.5,0.6-0.5,1
		c0,0.3,0.1,0.6,0.4,0.9c0.3,0.3,0.8,0.7,1.6,1.1c1,0.5,1.6,1,2,1.5c0.3,0.5,0.5,1,0.5,1.6c0,0.8-0.3,1.5-0.9,2.1
		c-0.6,0.6-1.3,0.9-2.2,0.9c-0.6,0-1.1-0.1-1.7-0.4c-0.5-0.3-1-0.6-1.3-1.1l0.8-0.9c0.7,0.8,1.4,1.1,2.1,1.1c0.5,0,1-0.2,1.3-0.5
		c0.4-0.3,0.6-0.7,0.6-1.2c0-0.4-0.1-0.7-0.4-1c-0.2-0.3-0.8-0.6-1.6-1.1c-0.9-0.5-1.5-0.9-1.9-1.4c-0.3-0.5-0.5-1-0.5-1.6
		c0-0.8,0.3-1.4,0.8-1.9c0.5-0.5,1.2-0.8,2-0.8C99.8,54.4,100.7,54.9,101.7,55.8z"/>
	<path class="st0" d="M112.6,58.8c-0.2-0.7-0.4-1.3-0.8-1.7c-0.3-0.4-0.8-0.8-1.3-1c-0.5-0.3-1.1-0.4-1.7-0.4c-1,0-1.9,0.3-2.6,1
		c-0.5,0.5-0.9,1.2-1.2,2.1H112.6z M112.6,61.5l1.1,0.6c-0.4,0.7-0.8,1.3-1.3,1.7c-0.5,0.4-1,0.8-1.6,1c-0.6,0.2-1.3,0.3-2,0.3
		c-1.7,0-3-0.5-3.9-1.6c-0.9-1.1-1.4-2.3-1.4-3.7c0-1.3,0.4-2.4,1.2-3.5c1-1.3,2.4-1.9,4-1.9c1.7,0,3.1,0.7,4.2,2
		c0.7,0.9,1.1,2.1,1.1,3.5h-9.2c0,1.2,0.4,2.2,1.1,2.9c0.7,0.8,1.6,1.1,2.7,1.1c0.5,0,1-0.1,1.5-0.3c0.5-0.2,0.9-0.4,1.3-0.7
		C111.8,62.7,112.2,62.2,112.6,61.5z"/>
	<path class="st0" d="M116,54.7h1.3v1.5c0.4-0.6,0.8-1,1.3-1.3c0.4-0.3,0.9-0.4,1.4-0.4c0.4,0,0.7,0.1,1.2,0.3l-0.7,1.1
		c-0.3-0.1-0.5-0.2-0.7-0.2c-0.4,0-0.9,0.2-1.3,0.5c-0.4,0.4-0.7,0.9-0.9,1.7c-0.2,0.6-0.2,1.8-0.2,3.5v3.4H116V54.7z"/>
	<polygon class="st0" points="121.3,54.7 122.7,54.7 126.1,62.1 129.5,54.7 130.9,54.7 126.2,64.9 126,64.9"/>
	<path class="st0" d="M132.7,54.7h1.3v10.2h-1.3V54.7z M133.4,50.5c0.3,0,0.6,0.1,0.8,0.3c0.2,0.2,0.3,0.5,0.3,0.8
		c0,0.3-0.1,0.5-0.3,0.8c-0.2,0.2-0.5,0.3-0.8,0.3c-0.3,0-0.5-0.1-0.8-0.3c-0.2-0.2-0.3-0.5-0.3-0.8c0-0.3,0.1-0.6,0.3-0.8
		C132.8,50.6,133.1,50.5,133.4,50.5z"/>
	<path class="st0" d="M146.6,56.8l-1,0.6c-0.9-1.2-2.1-1.8-3.7-1.8c-1.2,0-2.3,0.4-3.1,1.2c-0.8,0.8-1.2,1.8-1.2,2.9
		c0,0.7,0.2,1.4,0.6,2.1c0.4,0.7,0.9,1.2,1.6,1.5c0.7,0.4,1.4,0.5,2.2,0.5c1.5,0,2.7-0.6,3.7-1.8l1,0.7c-0.5,0.7-1.1,1.3-2,1.7
		c-0.8,0.4-1.8,0.6-2.8,0.6c-1.6,0-2.9-0.5-4-1.5c-1.1-1-1.6-2.3-1.6-3.7c0-1,0.3-1.9,0.7-2.8c0.5-0.8,1.2-1.5,2-2
		c0.9-0.5,1.8-0.7,2.9-0.7c0.7,0,1.3,0.1,2,0.3c0.6,0.2,1.2,0.5,1.6,0.8C146,55.9,146.3,56.3,146.6,56.8z"/>
	<path class="st0" d="M157.7,58.8c-0.2-0.7-0.4-1.3-0.8-1.7c-0.3-0.4-0.8-0.8-1.3-1c-0.6-0.3-1.1-0.4-1.7-0.4c-1,0-1.9,0.3-2.6,1
		c-0.5,0.5-0.9,1.2-1.2,2.1H157.7z M157.7,61.5l1.1,0.6c-0.4,0.7-0.8,1.3-1.3,1.7c-0.5,0.4-1,0.8-1.6,1c-0.6,0.2-1.3,0.3-2,0.3
		c-1.7,0-3-0.5-3.9-1.6c-0.9-1.1-1.4-2.3-1.4-3.7c0-1.3,0.4-2.4,1.2-3.5c1-1.3,2.4-1.9,4-1.9c1.7,0,3.1,0.7,4.2,2
		c0.7,0.9,1.1,2.1,1.1,3.5H150c0,1.2,0.4,2.2,1.1,2.9c0.7,0.8,1.6,1.1,2.7,1.1c0.5,0,1-0.1,1.5-0.3c0.5-0.2,0.9-0.4,1.3-0.7
		C157,62.7,157.3,62.2,157.7,61.5z"/>
	<path class="st0" d="M166.8,55.8l-0.8,0.9c-0.7-0.7-1.4-1-2.1-1c-0.4,0-0.8,0.1-1.1,0.4c-0.3,0.3-0.5,0.6-0.5,1
		c0,0.3,0.1,0.6,0.4,0.9c0.3,0.3,0.8,0.7,1.6,1.1c1,0.5,1.6,1,2,1.5c0.3,0.5,0.5,1,0.5,1.6c0,0.8-0.3,1.5-0.9,2.1
		c-0.6,0.6-1.3,0.9-2.2,0.9c-0.6,0-1.1-0.1-1.7-0.4c-0.5-0.3-1-0.6-1.3-1.1l0.8-0.9c0.7,0.8,1.4,1.1,2.1,1.1c0.5,0,1-0.2,1.3-0.5
		c0.4-0.3,0.6-0.7,0.6-1.2c0-0.4-0.1-0.7-0.4-1c-0.2-0.3-0.8-0.6-1.6-1.1c-0.9-0.5-1.5-0.9-1.9-1.4c-0.3-0.5-0.5-1-0.5-1.6
		c0-0.8,0.3-1.4,0.8-1.9c0.5-0.5,1.2-0.8,2-0.8C164.9,54.4,165.8,54.9,166.8,55.8z"/>
	<path class="st1" d="M48.9,9c-0.2,0-0.4,0-0.6,0c-6.8,0-13,2.2-18.2,5.8c2.9-0.8,5.9-1.2,9.1-1.2c9.8,0,18.6,3.9,25,10.3
		C61.1,17.3,55.6,12,48.9,9z M36.9,6.3c-0.2,0-0.4,0-0.7,0c-17.1,0-31,13.9-31,31c0,0.5,0,0.9,0,1.4c2.3-7.5,7.1-14,13.4-18.5
		C23,13.7,29.4,8.8,36.9,6.3z M60.8,11.6c6.2,5.9,10.3,14.1,10.9,23.2c2,4.4,3.1,9.3,3.1,14.5c0,3.1-0.4,6.2-1.2,9.1
		c3.7-5.1,5.8-11.4,5.8-18.2C79.5,27.4,71.8,16.4,60.8,11.6z M13.6,31.7c-3.4,5-5.4,11-5.4,17.5c0,0.5,0,1,0,1.4
		c3.1,6.5,8.4,11.7,14.8,14.8C16.6,58.9,12.6,50,12.6,40.1C12.6,37.2,12.9,34.4,13.6,31.7z M67.2,35.9c-5-10.5-15.7-17.7-28-17.7
		c-6.4,0-12.3,1.9-17.2,5.2c-3.1,4.8-4.9,10.6-4.9,16.8c0,12.4,7.3,23.2,17.9,28.2c0.4,0,0.8,0,1.3,0c17.1,0,31-13.9,31-31
		C67.3,36.8,67.3,36.3,67.2,35.9z M70.2,47.8C66.8,59,58,67.8,46.8,71.3c0.5,0,1,0,1.4,0c6.2,0,11.9-1.8,16.8-4.9
		c3.3-4.9,5.2-10.8,5.2-17.2C70.3,48.7,70.2,48.3,70.2,47.8z M11.2,62.5c5,10.5,15.7,17.7,28,17.7c6.5,0,12.5-2,17.5-5.4
		c-2.7,0.6-5.5,1-8.4,1c-5.1,0-10-1.1-14.5-3.1C25,72.2,17.1,68.4,11.2,62.5z M3.7,51.8c-2-4.4-3.1-9.3-3.1-14.5
		c0-19.6,15.9-35.6,35.6-35.6c4.8,0,9.4,1,13.6,2.7C68.9,5.3,84,21,84,40.1c0,12.3-6.3,23.2-15.8,29.6c-6.4,9.1-17.1,15-29,15
		C20.4,84.8,5,70.2,3.7,51.8z"/>
	<path class="st0" d="M24.1,35.8H28v1.7c0.6-0.7,1.4-1.2,2.2-1.6c0.8-0.3,1.7-0.5,2.6-0.5c0.9,0,1.8,0.2,2.6,0.7
		c0.8,0.5,1.4,1.1,1.8,2c0.6-0.9,1.3-1.5,2.2-2c0.9-0.5,1.8-0.7,2.9-0.7c1.1,0,2,0.2,2.8,0.7c0.8,0.5,1.4,1.1,1.8,1.9
		c0.4,0.8,0.5,2.1,0.5,3.9v8.8h-3.8v-7.6c0-1.7-0.2-2.8-0.6-3.4c-0.4-0.6-1.1-0.9-1.9-0.9c-0.6,0-1.2,0.2-1.7,0.6
		c-0.5,0.4-0.9,0.9-1.1,1.5c-0.3,0.6-0.4,1.7-0.4,3.1v6.8h-3.8v-7.2c0-1.3-0.1-2.3-0.3-2.9c-0.2-0.6-0.5-1-0.9-1.3
		c-0.4-0.3-0.9-0.4-1.4-0.4c-0.6,0-1.2,0.2-1.7,0.6c-0.5,0.4-0.9,0.9-1.2,1.6c-0.3,0.7-0.4,1.7-0.4,3.2v6.7h-3.8V35.8z"/>
	<path class="st0" d="M60.3,37.9l-2.4,2.3c-1-0.9-1.8-1.4-2.6-1.4c-0.4,0-0.8,0.1-1,0.3c-0.2,0.2-0.4,0.4-0.4,0.7
		c0,0.2,0.1,0.4,0.2,0.6c0.2,0.2,0.5,0.4,1.1,0.7l1.4,0.7c1.5,0.7,2.5,1.4,3,2.2c0.5,0.7,0.8,1.6,0.8,2.6c0,1.3-0.5,2.4-1.5,3.3
		c-1,0.9-2.3,1.3-4,1.3c-2.2,0-4-0.9-5.3-2.6l2.3-2.5c0.4,0.5,1,0.9,1.6,1.2c0.6,0.3,1.1,0.5,1.6,0.5c0.5,0,0.9-0.1,1.2-0.4
		c0.3-0.2,0.5-0.5,0.5-0.8c0-0.6-0.6-1.1-1.7-1.7L54,44.3c-2.5-1.2-3.7-2.7-3.7-4.6c0-1.2,0.5-2.2,1.4-3c0.9-0.8,2.1-1.3,3.5-1.3
		c1,0,1.9,0.2,2.8,0.6C58.9,36.5,59.7,37.1,60.3,37.9z"/>
</g>
</svg>